<svg width="151" height="82" viewBox="0 0 151 82" fill="none" xmlns="http://www.w3.org/2000/svg">
<path d="M106.246 1.56299L106.25 50.563H97.25V1.56299H106.246Z" fill="#E8ECF0"/>
<path d="M63.75 1.56686L106.25 1.56299V10.563L63.75 10.563V1.56686Z" fill="#E8ECF0"/>
<path d="M88.2461 1.56299L88.25 50.563H79.25V1.56299H88.2461Z" fill="#E8ECF0"/>
<path fillRule="evenodd" clipRule="evenodd" d="M59.1196 27.5218L63.7504 1.62085L72.7781 1.62573L64 50.563H63.2342L59.1196 27.5218Z" fill="#E8ECF0"/>
<path d="M53.7777 1.55787L62.528 50.5578L53.5003 50.5627L44.75 1.56274L53.7777 1.55787Z" fill="#51B7AF"/>
<path d="M0.53125 64.4331C0.401042 64.0894 0.523438 63.9175 0.898438 63.9175H2.14062C2.48958 63.9175 2.72917 64.0972 2.85938 64.4565L5.25 70.98C5.36979 71.3133 5.4401 71.5373 5.46094 71.6519C5.48177 71.7612 5.50521 71.9461 5.53125 72.2065H5.5625C5.58854 71.9461 5.61198 71.7612 5.63281 71.6519C5.65365 71.5373 5.72396 71.3133 5.84375 70.98L8.23438 64.4565C8.36458 64.0972 8.60417 63.9175 8.95312 63.9175H10.1953C10.5703 63.9175 10.6927 64.0894 10.5625 64.4331L6.82812 74.4878C6.67188 74.9097 6.42708 75.1206 6.09375 75.1206H5C4.66667 75.1206 4.42188 74.9097 4.26562 74.4878L0.53125 64.4331ZM14.1 75.1206C13.7354 75.1206 13.5531 74.9253 13.5531 74.5347V64.5034C13.5531 64.1128 13.7354 63.9175 14.1 63.9175H20.8031C21.1938 63.9175 21.3891 64.0868 21.3891 64.4253V65.3472C21.3891 65.6857 21.1938 65.855 20.8031 65.855H15.8344V68.3394H20.3891C20.7797 68.3394 20.975 68.5086 20.975 68.8472V69.769C20.975 70.1076 20.7797 70.2769 20.3891 70.2769H15.8344V73.1831H21.0531C21.4438 73.1831 21.6391 73.3524 21.6391 73.6909V74.6128C21.6391 74.9513 21.4438 75.1206 21.0531 75.1206H14.1ZM25.7 75.1206C25.3354 75.1206 25.1531 74.9253 25.1531 74.5347V64.5034C25.1531 64.1128 25.3354 63.9175 25.7 63.9175H26.8563C27.3042 63.9175 27.6427 64.0998 27.8719 64.4644L31.8563 70.8628H31.9109C31.8849 70.5503 31.8719 70.2378 31.8719 69.9253V64.5034C31.8719 64.1128 32.0542 63.9175 32.4188 63.9175H33.6063C33.9708 63.9175 34.1531 64.1128 34.1531 64.5034V74.5347C34.1531 74.9253 33.9708 75.1206 33.6063 75.1206H32.5281C32.0802 75.1206 31.7417 74.9383 31.5125 74.5737L27.45 68.0581H27.3953C27.4214 68.3706 27.4344 68.6831 27.4344 68.9956V74.5347C27.4344 74.9253 27.2521 75.1206 26.8875 75.1206H25.7ZM37.8547 65.9175C37.4641 65.9175 37.2687 65.7482 37.2687 65.4097V64.4253C37.2687 64.0868 37.4641 63.9175 37.8547 63.9175H45.8859C46.2766 63.9175 46.4719 64.0868 46.4719 64.4253V65.4097C46.4719 65.7482 46.2766 65.9175 45.8859 65.9175H43.0109V74.6909C43.0109 74.9774 42.8807 75.1206 42.6203 75.1206H41.1203C40.8599 75.1206 40.7297 74.9774 40.7297 74.6909V65.9175H37.8547ZM49.5875 70.4565V64.3472C49.5875 64.0607 49.7698 63.9175 50.1344 63.9175H51.3219C51.6865 63.9175 51.8688 64.0607 51.8688 64.3472V70.3784C51.8688 71.7847 52.0745 72.6649 52.4859 73.019C52.9026 73.368 53.3714 73.5425 53.8922 73.5425C54.413 73.5425 54.8792 73.368 55.2906 73.019C55.7073 72.6649 55.9156 71.7847 55.9156 70.3784V64.3472C55.9156 64.0607 56.0979 63.9175 56.4625 63.9175H57.65C58.0146 63.9175 58.1969 64.0607 58.1969 64.3472V70.4565C58.1969 72.2795 57.8115 73.5581 57.0406 74.2925C56.2698 75.0216 55.2203 75.3862 53.8922 75.3862C52.5641 75.3862 51.5146 75.0216 50.7438 74.2925C49.9729 73.5581 49.5875 72.2795 49.5875 70.4565ZM62.8438 75.1206C62.4792 75.1206 62.2969 74.9253 62.2969 74.5347V64.5034C62.2969 64.1128 62.4792 63.9175 62.8438 63.9175H66.4609C68.0703 63.9175 69.2448 64.1675 69.9844 64.6675C70.724 65.1623 71.0938 65.9696 71.0938 67.0894C71.0938 67.9227 70.7943 68.5868 70.1953 69.0815C69.5964 69.5763 68.8359 69.9045 67.9141 70.0659V70.0815C68.4141 70.269 68.7917 70.5295 69.0469 70.8628C69.3021 71.1961 69.5104 71.4878 69.6719 71.7378L71.3906 74.4487C71.6771 74.8966 71.5781 75.1206 71.0938 75.1206H69.7344C69.4479 75.1206 69.2135 74.967 69.0312 74.6597L67.4531 72.0269C67.2812 71.7456 66.9661 71.4383 66.5078 71.105C66.0547 70.7664 65.6042 70.5972 65.1562 70.5972H64.5781V74.5347C64.5781 74.9253 64.3958 75.1206 64.0312 75.1206H62.8438ZM64.5781 68.6597H65.9766C67.0182 68.6597 67.7578 68.5425 68.1953 68.3081C68.638 68.0685 68.8594 67.6909 68.8594 67.1753C68.8594 66.6128 68.6458 66.2482 68.2188 66.0815C67.7969 65.9097 67.1745 65.8237 66.3516 65.8237H64.5781V68.6597ZM75.6 75.1206C75.2354 75.1206 75.0531 74.9253 75.0531 74.5347V64.5034C75.0531 64.1128 75.2354 63.9175 75.6 63.9175H82.3031C82.6937 63.9175 82.8891 64.0868 82.8891 64.4253V65.3472C82.8891 65.6857 82.6937 65.855 82.3031 65.855H77.3344V68.3394H81.8891C82.2797 68.3394 82.475 68.5086 82.475 68.8472V69.769C82.475 70.1076 82.2797 70.2769 81.8891 70.2769H77.3344V73.1831H82.5531C82.9437 73.1831 83.1391 73.3524 83.1391 73.6909V74.6128C83.1391 74.9513 82.9437 75.1206 82.5531 75.1206H75.6Z" fill="#E8ECF0"/>
<path d="M94.2688 75.1206C93.9042 75.1206 93.7219 74.9253 93.7219 74.5347V64.5034C93.7219 64.1128 93.9042 63.9175 94.2688 63.9175H96.5344C96.8365 63.9175 97.0526 64.1258 97.1828 64.5425L99.3 71.394C99.3938 71.6909 99.4589 71.9357 99.4953 72.1284C99.5318 72.3159 99.563 72.5399 99.5891 72.8003H99.6359C99.662 72.5399 99.6932 72.3159 99.7297 72.1284C99.7661 71.9357 99.8313 71.6909 99.925 71.394L102.042 64.5425C102.172 64.1258 102.389 63.9175 102.691 63.9175H104.956C105.321 63.9175 105.503 64.1128 105.503 64.5034V74.5347C105.503 74.9253 105.321 75.1206 104.956 75.1206H103.769C103.404 75.1206 103.222 74.9253 103.222 74.5347V68.0815C103.222 67.769 103.235 67.4565 103.261 67.144H103.206L100.948 74.4878C100.818 74.9097 100.594 75.1206 100.277 75.1206H98.9484C98.6307 75.1206 98.4068 74.9097 98.2766 74.4878L96.0188 67.144H95.9641C95.9901 67.4565 96.0031 67.769 96.0031 68.0815V74.5347C96.0031 74.9253 95.8208 75.1206 95.4563 75.1206H94.2688ZM110.15 75.1206C109.785 75.1206 109.603 74.9253 109.603 74.5347V64.5034C109.603 64.1128 109.785 63.9175 110.15 63.9175H111.338C111.702 63.9175 111.884 64.1128 111.884 64.5034V74.5347C111.884 74.9253 111.702 75.1206 111.338 75.1206H110.15ZM116.531 75.1206C116.167 75.1206 115.984 74.9253 115.984 74.5347V64.5034C115.984 64.1128 116.167 63.9175 116.531 63.9175H117.688C118.135 63.9175 118.474 64.0998 118.703 64.4644L122.688 70.8628H122.742C122.716 70.5503 122.703 70.2378 122.703 69.9253V64.5034C122.703 64.1128 122.885 63.9175 123.25 63.9175H124.438C124.802 63.9175 124.984 64.1128 124.984 64.5034V74.5347C124.984 74.9253 124.802 75.1206 124.438 75.1206H123.359C122.911 75.1206 122.573 74.9383 122.344 74.5737L118.281 68.0581H118.227C118.253 68.3706 118.266 68.6831 118.266 68.9956V74.5347C118.266 74.9253 118.083 75.1206 117.719 75.1206H116.531ZM129.631 75.1206C129.267 75.1206 129.084 74.9253 129.084 74.5347V64.5034C129.084 64.1128 129.267 63.9175 129.631 63.9175H136.334C136.725 63.9175 136.92 64.0868 136.92 64.4253V65.3472C136.92 65.6857 136.725 65.855 136.334 65.855H131.366V68.3394H135.92C136.311 68.3394 136.506 68.5086 136.506 68.8472V69.769C136.506 70.1076 136.311 70.2769 135.92 70.2769H131.366V73.1831H136.584C136.975 73.1831 137.17 73.3524 137.17 73.6909V74.6128C137.17 74.9513 136.975 75.1206 136.584 75.1206H129.631ZM141.231 75.1206C140.867 75.1206 140.684 74.9253 140.684 74.5347V64.5034C140.684 64.1128 140.867 63.9175 141.231 63.9175H144.848C146.458 63.9175 147.632 64.1675 148.372 64.6675C149.111 65.1623 149.481 65.9696 149.481 67.0894C149.481 67.9227 149.182 68.5868 148.583 69.0815C147.984 69.5763 147.223 69.9045 146.302 70.0659V70.0815C146.802 70.269 147.179 70.5295 147.434 70.8628C147.69 71.1961 147.898 71.4878 148.059 71.7378L149.778 74.4487C150.065 74.8966 149.966 75.1206 149.481 75.1206H148.122C147.835 75.1206 147.601 74.967 147.419 74.6597L145.841 72.0269C145.669 71.7456 145.354 71.4383 144.895 71.105C144.442 70.7664 143.992 70.5972 143.544 70.5972H142.966V74.5347C142.966 74.9253 142.783 75.1206 142.419 75.1206H141.231ZM142.966 68.6597H144.364C145.406 68.6597 146.145 68.5425 146.583 68.3081C147.026 68.0685 147.247 67.6909 147.247 67.1753C147.247 66.6128 147.033 66.2482 146.606 66.0815C146.184 65.9097 145.562 65.8237 144.739 65.8237H142.966V68.6597Z" fill="#51B7AF"/>
</svg>